<svg width="330" height="205" viewBox="0 0 330 205" fill="none" xmlns="http://www.w3.org/2000/svg">
<g style="mix-blend-mode:darken">
<path fill-rule="evenodd" clip-rule="evenodd" d="M-36.4437 112.967L0.991053 181.598L-18.2668 193.702L-82.6943 164.173L-36.4437 112.967Z" stroke="#C8626F" stroke-opacity="0.21" stroke-width="2"/>
<path fill-rule="evenodd" clip-rule="evenodd" d="M191.276 39.5827L203.258 104.627L132.718 139.113L120.227 128.436L121.638 55.101L151.92 21.5447L191.276 39.5827Z" stroke="#C8626F" stroke-opacity="0.21" stroke-width="2"/>
<path fill-rule="evenodd" clip-rule="evenodd" d="M145.141 -70L140.227 -45.4264L43.1499 15.6961L33.9652 12.7383L15.3913 -70H145.141Z" stroke="#C8626F" stroke-opacity="0.21" stroke-width="2"/>
<path fill-rule="evenodd" clip-rule="evenodd" d="M191.276 39.5827L151.92 21.5447L140.227 -45.4264L145.142 -70H190.733L262.103 11.9431L191.276 39.5827Z" stroke="#C8626F" stroke-opacity="0.21" stroke-width="2"/>
<path fill-rule="evenodd" clip-rule="evenodd" d="M276.153 95.7683L269.957 13.6757L285.299 4.56638L371.734 22.5057L370.571 95.7683H276.153Z" stroke="#C8626F" stroke-opacity="0.21" stroke-width="2"/>
<path fill-rule="evenodd" clip-rule="evenodd" d="M302.039 -70L285.299 4.56641L269.957 13.6757L262.103 11.9431L190.733 -70H302.039Z" stroke="#C8626F" stroke-opacity="0.21" stroke-width="2"/>
<path fill-rule="evenodd" clip-rule="evenodd" d="M132.718 139.113L136.671 156.55L79.7549 272.856L28.8202 181.598L57.7857 127.444L120.228 128.436L132.718 139.113Z" stroke="#C8626F" stroke-opacity="0.21" stroke-width="2"/>
<path fill-rule="evenodd" clip-rule="evenodd" d="M-45.3658 275L-18.2667 193.702L0.991141 181.598H28.8199L79.7546 272.856L79.7785 275H-45.3658Z" stroke="#C8626F" stroke-opacity="0.21" stroke-width="2"/>
<path fill-rule="evenodd" clip-rule="evenodd" d="M121.638 55.101L120.227 128.436L57.7854 127.445L49.0211 117.804L61.9706 36.8694L121.638 55.101Z" stroke="#C8626F" stroke-opacity="0.21" stroke-width="2"/>
<path fill-rule="evenodd" clip-rule="evenodd" d="M57.7857 127.445L28.8202 181.598H0.991387L-36.4434 112.967L-27.8787 84.5969L49.0214 117.804L57.7857 127.445Z" stroke="#C8626F" stroke-opacity="0.21" stroke-width="2"/>
<path fill-rule="evenodd" clip-rule="evenodd" d="M151.92 21.5447L121.637 55.101L61.9705 36.8694L43.1497 15.6961L140.227 -45.4264L151.92 21.5447Z" stroke="#C8626F" stroke-opacity="0.21" stroke-width="2"/>
<path fill-rule="evenodd" clip-rule="evenodd" d="M191.276 39.5828L262.102 11.9431L269.957 13.6758L276.153 95.7683L256.602 121.041L203.258 104.627L191.276 39.5828Z" stroke="#C8626F" stroke-opacity="0.21" stroke-width="2"/>
<path fill-rule="evenodd" clip-rule="evenodd" d="M260.436 145.092L323.268 186.469L315.636 275H222.94L213.724 210.488L260.436 145.092Z" stroke="#C8626F" stroke-opacity="0.21" stroke-width="2"/>
<path fill-rule="evenodd" clip-rule="evenodd" d="M79.778 275L79.7542 272.856L136.67 156.55L213.724 210.488L222.94 275H79.778Z" stroke="#C8626F" stroke-opacity="0.21" stroke-width="2"/>
<path fill-rule="evenodd" clip-rule="evenodd" d="M442.683 275H315.637L323.269 186.469L398.506 135.766L442.683 151.473V275Z" stroke="#C8626F" stroke-opacity="0.21" stroke-width="2"/>
<path fill-rule="evenodd" clip-rule="evenodd" d="M61.9704 36.8694L49.0209 117.804L-27.8792 84.5969L-30.3214 78.317L-28.6023 51.8428L33.9649 12.7383L43.1497 15.6961L61.9704 36.8694Z" stroke="#C8626F" stroke-opacity="0.21" stroke-width="2"/>
<path fill-rule="evenodd" clip-rule="evenodd" d="M15.3909 -70L33.9648 12.7383L-28.6024 51.8428L-73.3223 2.96286L-42.4534 -70H15.3909Z" stroke="#C8626F" stroke-opacity="0.21" stroke-width="2"/>
<path fill-rule="evenodd" clip-rule="evenodd" d="M276.152 95.7683H370.571L398.505 135.766L323.268 186.469L260.436 145.092L256.602 121.041L276.152 95.7683Z" stroke="#C8626F" stroke-opacity="0.21" stroke-width="2"/>
<path fill-rule="evenodd" clip-rule="evenodd" d="M442.683 -70V-45.8157L371.734 22.5057L285.299 4.56642L302.038 -70H442.683Z" stroke="#C8626F" stroke-opacity="0.21" stroke-width="2"/>
<path fill-rule="evenodd" clip-rule="evenodd" d="M132.718 139.113L203.258 104.627L256.602 121.041L260.436 145.092L213.725 210.488L136.67 156.55L132.718 139.113Z" stroke="#C8626F" stroke-opacity="0.21" stroke-width="2"/>
</g>
</svg>
