<svg width="330" height="205" viewBox="0 0 330 205" fill="none" xmlns="http://www.w3.org/2000/svg">
<path fill-rule="evenodd" clip-rule="evenodd" d="M45.3016 108.72L67.5455 149.5L56.1024 156.693L17.8194 139.146L45.3016 108.72Z" stroke="#3B696A" stroke-opacity="0.21" stroke-width="2"/>
<path fill-rule="evenodd" clip-rule="evenodd" d="M0 205V146L17.8194 139.146L56.1024 156.693L40 205H0Z" stroke="#3B696A" stroke-opacity="0.21" stroke-width="2"/>
<path fill-rule="evenodd" clip-rule="evenodd" d="M180.613 65.1144L187.733 103.764L145.818 124.256L138.396 117.911L139.234 74.3354L157.228 54.3961L180.613 65.1144Z" stroke="#3B696A" stroke-opacity="0.21" stroke-width="2"/>
<path fill-rule="evenodd" clip-rule="evenodd" d="M153.2 0L150.28 14.6017L92.5963 50.9208L87.1387 49.1633L76.1021 0H153.2Z" stroke="#3B696A" stroke-opacity="0.21" stroke-width="2"/>
<path fill-rule="evenodd" clip-rule="evenodd" d="M180.613 65.1144L157.228 54.3961L150.28 14.6017L153.2 0H180.29L222.698 48.6908L180.613 65.1144Z" stroke="#3B696A" stroke-opacity="0.21" stroke-width="2"/>
<path fill-rule="evenodd" clip-rule="evenodd" d="M231.047 98.5L227.366 49.7204L236.482 44.3076L287.842 54.9672L287.151 98.5H231.047Z" stroke="#3B696A" stroke-opacity="0.21" stroke-width="2"/>
<path fill-rule="evenodd" clip-rule="evenodd" d="M246.429 0L236.482 44.3076L227.366 49.7204L222.698 48.6908L180.29 0H246.429Z" stroke="#3B696A" stroke-opacity="0.21" stroke-width="2"/>
<path fill-rule="evenodd" clip-rule="evenodd" d="M145.818 124.256L148.166 134.616L114.347 203.726L84.0814 149.5L101.293 117.322L138.396 117.911L145.818 124.256Z" stroke="#3B696A" stroke-opacity="0.21" stroke-width="2"/>
<path fill-rule="evenodd" clip-rule="evenodd" d="M40 205L56.1024 156.693L67.5455 149.5H84.0814L114.347 203.726L114.361 205H40Z" stroke="#3B696A" stroke-opacity="0.21" stroke-width="2"/>
<path fill-rule="evenodd" clip-rule="evenodd" d="M0 95.5455L48.9396 88.1304L50.3907 91.8619L45.3016 108.72L17.8194 139.146L0 146V95.5455Z" stroke="#3B696A" stroke-opacity="0.21" stroke-width="2"/>
<path fill-rule="evenodd" clip-rule="evenodd" d="M0 0H41.7308L23.3884 43.3547L0 45.1538V0Z" stroke="#3B696A" stroke-opacity="0.21" stroke-width="2"/>
<path fill-rule="evenodd" clip-rule="evenodd" d="M139.234 74.3354L138.396 117.911L101.293 117.322L96.085 111.594L103.78 63.5021L139.234 74.3354Z" stroke="#3B696A" stroke-opacity="0.21" stroke-width="2"/>
<path fill-rule="evenodd" clip-rule="evenodd" d="M101.293 117.322L84.0814 149.5H67.5455L45.3016 108.72L50.3908 91.8619L96.085 111.594L101.293 117.322Z" stroke="#3B696A" stroke-opacity="0.21" stroke-width="2"/>
<path fill-rule="evenodd" clip-rule="evenodd" d="M157.228 54.3961L139.234 74.3354L103.78 63.5021L92.5963 50.9208L150.28 14.6017L157.228 54.3961Z" stroke="#3B696A" stroke-opacity="0.21" stroke-width="2"/>
<path fill-rule="evenodd" clip-rule="evenodd" d="M180.613 65.1144L222.698 48.6908L227.366 49.7204L231.047 98.5L219.43 113.517L187.733 103.764L180.613 65.1144Z" stroke="#3B696A" stroke-opacity="0.21" stroke-width="2"/>
<path fill-rule="evenodd" clip-rule="evenodd" d="M221.709 127.808L259.044 152.395L254.509 205H199.429L193.952 166.667L221.709 127.808Z" stroke="#3B696A" stroke-opacity="0.21" stroke-width="2"/>
<path fill-rule="evenodd" clip-rule="evenodd" d="M114.361 205L114.347 203.726L148.166 134.616L193.952 166.667L199.429 205H114.361Z" stroke="#3B696A" stroke-opacity="0.21" stroke-width="2"/>
<path fill-rule="evenodd" clip-rule="evenodd" d="M0 45.1538L23.3884 43.3547L49.9611 72.3993L48.9396 88.1304L0 95.5455V45.1538Z" stroke="#3B696A" stroke-opacity="0.21" stroke-width="2"/>
<path fill-rule="evenodd" clip-rule="evenodd" d="M330 205H254.509L259.044 152.395L303.75 122.267L330 131.6V205Z" stroke="#3B696A" stroke-opacity="0.21" stroke-width="2"/>
<path fill-rule="evenodd" clip-rule="evenodd" d="M330 131.6L303.75 122.267L287.151 98.5L287.842 54.9672L330 14.3704V131.6Z" stroke="#3B696A" stroke-opacity="0.21" stroke-width="2"/>
<path fill-rule="evenodd" clip-rule="evenodd" d="M103.78 63.5021L96.085 111.594L50.3907 91.8619L48.9396 88.1304L49.9611 72.3993L87.1387 49.1633L92.5963 50.9208L103.78 63.5021Z" stroke="#3B696A" stroke-opacity="0.21" stroke-width="2"/>
<path fill-rule="evenodd" clip-rule="evenodd" d="M76.102 0L87.1387 49.1633L49.9611 72.3993L23.3884 43.3547L41.7308 0H76.102Z" stroke="#3B696A" stroke-opacity="0.21" stroke-width="2"/>
<path fill-rule="evenodd" clip-rule="evenodd" d="M231.047 98.5H287.151L303.75 122.267L259.044 152.395L221.709 127.808L219.43 113.517L231.047 98.5Z" stroke="#3B696A" stroke-opacity="0.21" stroke-width="2"/>
<path fill-rule="evenodd" clip-rule="evenodd" d="M330 0V14.3704L287.842 54.9672L236.482 44.3076L246.429 0H330Z" stroke="#3B696A" stroke-opacity="0.21" stroke-width="2"/>
<path fill-rule="evenodd" clip-rule="evenodd" d="M145.818 124.256L187.733 103.764L219.43 113.517L221.709 127.808L193.952 166.667L148.166 134.616L145.818 124.256Z" stroke="#3B696A" stroke-opacity="0.21" stroke-width="2"/>
</svg>
