<svg width="24" height="24" viewBox="0 0 24 24" fill="none" xmlns="http://www.w3.org/2000/svg">
<path d="M24 12C24 10.374 23.286 8.84 22.075 7.876C22.215 6.254 21.635 4.665 20.485 3.514C19.335 2.365 17.75 1.783 16.208 1.959C14.194 -0.596998 9.84302 -0.644998 7.87602 1.924C4.64302 1.54 1.53402 4.584 1.96002 7.792C-0.595979 9.806 -0.644979 14.157 1.92502 16.125C1.78502 17.747 2.36502 19.336 3.51502 20.487C4.66502 21.636 6.25202 22.218 7.79202 22.042C9.80602 24.598 14.157 24.646 16.124 22.077C17.744 22.216 19.334 21.638 20.485 20.487C21.634 19.337 22.214 17.747 22.04 16.21C23.286 15.162 24 13.628 24 12.002V12ZM8.00002 9C8.00602 7.692 9.99402 7.692 10 9C9.99402 10.308 8.00602 10.308 8.00002 9ZM10.832 15.555C10.524 16.018 9.89902 16.136 9.44502 15.832C8.98502 15.526 8.86102 14.905 9.16802 14.445L13.168 8.445C13.474 7.986 14.094 7.86 14.555 8.168C15.015 8.474 15.139 9.095 14.832 9.555L10.832 15.555ZM15 16C13.692 15.994 13.692 14.006 15 14C16.308 14.006 16.308 15.994 15 16Z" fill="#686868"/>
</svg>
