<svg width="38" height="38" viewBox="0 0 38 38" fill="none" xmlns="http://www.w3.org/2000/svg">
<rect width="38" height="38" rx="19" fill="#194C4D"/>
<path d="M25 15.0018C25 13.4105 24.3679 11.8843 23.2426 10.7591C22.1174 9.63391 20.5913 9.00177 19 9.00177C17.4087 9.00177 15.8826 9.63391 14.7574 10.7591C13.6321 11.8843 13 13.4105 13 15.0018C13 22.0018 10 24.0018 10 24.0018H28C28 24.0018 25 22.0018 25 15.0018Z" stroke="white" stroke-width="2" stroke-linecap="round" stroke-linejoin="round"/>
<path d="M20.73 28.0018C20.5542 28.3048 20.3018 28.5564 19.9982 28.7313C19.6946 28.9062 19.3504 28.9982 19 28.9982C18.6496 28.9982 18.3054 28.9062 18.0018 28.7313C17.6981 28.5564 17.4458 28.3048 17.27 28.0018" stroke="white" stroke-width="2" stroke-linecap="round" stroke-linejoin="round"/>
</svg>
