<svg width="21" height="21" viewBox="0 0 21 21" fill="none" xmlns="http://www.w3.org/2000/svg">
<path d="M9 0C7.93913 0 6.92172 0.421427 6.17157 1.17157C5.42143 1.92172 5 2.93913 5 4C5 5.06087 5.42143 6.07828 6.17157 6.82843C6.92172 7.57857 7.93913 8 9 8C10.0609 8 11.0783 7.57857 11.8284 6.82843C12.5786 6.07828 13 5.06087 13 4C13 2.93913 12.5786 1.92172 11.8284 1.17157C11.0783 0.421427 10.0609 0 9 0ZM9 11C5.859 11 0 12.545 0 15.5V18H9.295C8.93865 16.8148 8.90441 15.556 9.19581 14.3531C9.48721 13.1503 10.0937 12.0467 10.953 11.156C10.3066 11.0575 9.65389 11.0053 9 11ZM15.064 11C15.0017 11.0001 14.9416 11.023 14.8952 11.0645C14.8487 11.106 14.8191 11.1631 14.812 11.225L14.695 12.236C14.211 12.404 13.775 12.659 13.395 12.988L12.457 12.582C12.4001 12.5575 12.3362 12.5548 12.2775 12.5746C12.2188 12.5943 12.1695 12.6351 12.139 12.689L11.201 14.311C11.1702 14.3649 11.1601 14.4283 11.1729 14.4891C11.1856 14.5499 11.2201 14.604 11.27 14.641L12.076 15.238C12.0268 15.4891 12.0014 15.7442 12 16C12 16.26 12.028 16.513 12.076 16.76L11.271 17.36C11.2211 17.3971 11.1866 17.4512 11.1741 17.512C11.1615 17.5729 11.1718 17.6362 11.203 17.69L12.139 19.31C12.17 19.3639 12.2198 19.4045 12.2788 19.4241C12.3378 19.4436 12.402 19.4407 12.459 19.416L13.395 19.012C13.7765 19.3431 14.2178 19.5983 14.695 19.764L14.812 20.775C14.8187 20.8371 14.8482 20.8944 14.8947 20.936C14.9413 20.9775 15.0016 21.0004 15.064 21H16.936C16.9983 20.9999 17.0584 20.977 17.1048 20.9355C17.1513 20.894 17.1809 20.8369 17.188 20.775L17.305 19.764C17.789 19.596 18.225 19.341 18.605 19.012L19.543 19.418C19.5999 19.4423 19.6638 19.4448 19.7224 19.4251C19.781 19.4054 19.8304 19.3648 19.861 19.311L20.799 17.689C20.8298 17.6351 20.8399 17.5717 20.8271 17.5109C20.8144 17.4501 20.7799 17.396 20.73 17.359L19.924 16.759C19.972 16.513 20 16.26 20 16C20 15.74 19.972 15.487 19.924 15.24L20.729 14.64C20.7789 14.6029 20.8134 14.5488 20.8259 14.488C20.8385 14.4271 20.8282 14.3638 20.797 14.31L19.861 12.69C19.83 12.6361 19.7803 12.5955 19.7212 12.5759C19.6622 12.5564 19.598 12.5593 19.541 12.584L18.605 12.988C18.2234 12.657 17.7822 12.4018 17.305 12.236L17.188 11.225C17.1813 11.1629 17.1518 11.1056 17.1053 11.064C17.0587 11.0225 16.9984 10.9996 16.936 11H15.064ZM16 14.25C16.4641 14.25 16.9092 14.4344 17.2374 14.7626C17.5656 15.0908 17.75 15.5359 17.75 16C17.75 16.4641 17.5656 16.9092 17.2374 17.2374C16.9092 17.5656 16.4641 17.75 16 17.75C15.5359 17.75 15.0908 17.5656 14.7626 17.2374C14.4344 16.9092 14.25 16.4641 14.25 16C14.25 15.5359 14.4344 15.0908 14.7626 14.7626C15.0908 14.4344 15.5359 14.25 16 14.25Z" fill="#686868"/>
</svg>
