<svg width="48" height="48" viewBox="0 0 48 48" fill="none" xmlns="http://www.w3.org/2000/svg">
<path d="M45.8158 24C45.8158 36.03 36.0283 45.8157 24.0002 45.8157C11.9721 45.8157 2.18457 36.03 2.18457 24C2.18457 11.97 11.9721 2.18439 24.0002 2.18439C36.0283 2.18439 45.8158 11.97 45.8158 24ZM36.0246 10.9725C35.6402 10.6163 35.0402 10.6425 34.684 11.025L25.1215 21.3863C24.7783 21.2381 24.3977 21.1538 24.0002 21.1538C22.429 21.1538 21.154 22.4288 21.154 24C21.154 25.5713 22.429 26.8463 24.0002 26.8463C24.1615 26.8463 24.3152 26.8238 24.469 26.7975L27.9133 32.9963C28.0877 33.3075 28.4102 33.4857 28.744 33.4857C28.8996 33.4857 29.0571 33.4463 29.2033 33.3657C29.6608 33.1107 29.8258 32.5332 29.5708 32.0757L26.1265 25.875C26.569 25.3725 26.8465 24.72 26.8465 24C26.8465 23.5219 26.7171 23.0775 26.5071 22.6819L36.079 12.3131C36.4333 11.9269 36.4108 11.3288 36.0246 10.9725Z" fill="#FFEDCB" stroke="#FFA500" stroke-width="2" stroke-miterlimit="10" stroke-linejoin="round"/>
<path d="M24.0002 2.18439C11.9721 2.18439 2.18457 11.97 2.18457 24C2.18457 36.03 11.9721 45.8156 24.0002 45.8156C36.0283 45.8156 45.8158 36.03 45.8158 24C45.8158 11.97 36.0283 2.18439 24.0002 2.18439ZM36.0789 12.3131L26.5071 22.6819C26.7171 23.0775 26.8464 23.5219 26.8464 24C26.8464 24.72 26.5689 25.3725 26.1264 25.875L29.5708 32.0756C29.8258 32.5331 29.6608 33.1106 29.2033 33.3656C29.0571 33.4463 28.8996 33.4856 28.7439 33.4856C28.4102 33.4856 28.0877 33.3075 27.9133 32.9963L24.4689 26.7975C24.3152 26.8238 24.1614 26.8463 24.0002 26.8463C22.4289 26.8463 21.1539 25.5713 21.1539 24C21.1539 22.4288 22.4289 21.1538 24.0002 21.1538C24.3977 21.1538 24.7783 21.2381 25.1214 21.3863L34.6839 11.025C35.0402 10.6425 35.6402 10.6163 36.0246 10.9725C36.4108 11.3288 36.4333 11.9269 36.0789 12.3131Z" fill="#FFEDCB"/>
</svg>
