<svg width="24" height="25" viewBox="0 0 24 25" fill="none" xmlns="http://www.w3.org/2000/svg">
<path d="M7 2.5H17C17.7956 2.5 18.5587 2.81607 19.1213 3.37868C19.6839 3.94129 20 4.70435 20 5.5V19.5C20 20.2956 19.6839 21.0587 19.1213 21.6213C18.5587 22.1839 17.7956 22.5 17 22.5H7C6.20435 22.5 5.44129 22.1839 4.87868 21.6213C4.31607 21.0587 4 20.2956 4 19.5V5.5C4 4.70435 4.31607 3.94129 4.87868 3.37868C5.44129 2.81607 6.20435 2.5 7 2.5ZM7 4.5C6.73478 4.5 6.48043 4.60536 6.29289 4.79289C6.10536 4.98043 6 5.23478 6 5.5V19.5C6 19.7652 6.10536 20.0196 6.29289 20.2071C6.48043 20.3946 6.73478 20.5 7 20.5H17C17.2652 20.5 17.5196 20.3946 17.7071 20.2071C17.8946 20.0196 18 19.7652 18 19.5V5.5C18 5.23478 17.8946 4.98043 17.7071 4.79289C17.5196 4.60536 17.2652 4.5 17 4.5H7ZM9 5.5H15C15.2652 5.5 15.5196 5.60536 15.7071 5.79289C15.8946 5.98043 16 6.23478 16 6.5C16 6.76522 15.8946 7.01957 15.7071 7.20711C15.5196 7.39464 15.2652 7.5 15 7.5H9C8.73478 7.5 8.48043 7.39464 8.29289 7.20711C8.10536 7.01957 8 6.76522 8 6.5C8 6.23478 8.10536 5.98043 8.29289 5.79289C8.48043 5.60536 8.73478 5.5 9 5.5ZM9 17.5H11C11.2652 17.5 11.5196 17.6054 11.7071 17.7929C11.8946 17.9804 12 18.2348 12 18.5C12 18.7652 11.8946 19.0196 11.7071 19.2071C11.5196 19.3946 11.2652 19.5 11 19.5H9C8.73478 19.5 8.48043 19.3946 8.29289 19.2071C8.10536 19.0196 8 18.7652 8 18.5C8 18.2348 8.10536 17.9804 8.29289 17.7929C8.48043 17.6054 8.73478 17.5 9 17.5ZM9 13.5H15C15.2652 13.5 15.5196 13.6054 15.7071 13.7929C15.8946 13.9804 16 14.2348 16 14.5C16 14.7652 15.8946 15.0196 15.7071 15.2071C15.5196 15.3946 15.2652 15.5 15 15.5H9C8.73478 15.5 8.48043 15.3946 8.29289 15.2071C8.10536 15.0196 8 14.7652 8 14.5C8 14.2348 8.10536 13.9804 8.29289 13.7929C8.48043 13.6054 8.73478 13.5 9 13.5ZM9 9.5H15C15.2652 9.5 15.5196 9.60536 15.7071 9.79289C15.8946 9.98043 16 10.2348 16 10.5C16 10.7652 15.8946 11.0196 15.7071 11.2071C15.5196 11.3946 15.2652 11.5 15 11.5H9C8.73478 11.5 8.48043 11.3946 8.29289 11.2071C8.10536 11.0196 8 10.7652 8 10.5C8 10.2348 8.10536 9.98043 8.29289 9.79289C8.48043 9.60536 8.73478 9.5 9 9.5Z" fill="white"/>
</svg>
