<svg width="48" height="48" viewBox="0 0 48 48" fill="none" xmlns="http://www.w3.org/2000/svg">
<path d="M23.9998 46.2C11.7586 46.2 1.7998 36.2412 1.7998 24C1.7998 11.7588 11.7586 1.79999 23.9998 1.79999C36.241 1.79999 46.1998 11.7588 46.1998 24C46.1998 36.2412 36.241 46.2 23.9998 46.2Z" fill="#F78F8F"/>
<path d="M24.0002 2.40001C35.9102 2.40001 45.6002 12.09 45.6002 24C45.6002 35.91 35.9102 45.6 24.0002 45.6C12.0902 45.6 2.4002 35.91 2.4002 24C2.4002 12.09 12.0902 2.40001 24.0002 2.40001ZM24.0002 1.20001C11.4086 1.20001 1.2002 11.4084 1.2002 24C1.2002 36.5916 11.4086 46.8 24.0002 46.8C36.5918 46.8 46.8002 36.5916 46.8002 24C46.8002 11.4084 36.5918 1.20001 24.0002 1.20001Z" fill="#C74343"/>
<path d="M16.7871 33.7579L14.2416 31.2123L31.2124 14.242L33.758 16.7877L16.7871 33.7579Z" fill="white"/>
<path d="M14.2422 16.7877L16.7877 14.2421L33.7586 31.2123L31.213 33.758L14.2422 16.7877Z" fill="white"/>
</svg>
