<svg width="24" height="24" viewBox="0 0 24 24" fill="none" xmlns="http://www.w3.org/2000/svg">
<g clip-path="url(#clip0_3723_14005)">
<path d="M12 3C10.9391 3 9.92172 3.42143 9.17157 4.17157C8.42143 4.92172 8 5.93913 8 7C8 8.06087 8.42143 9.07828 9.17157 9.82843C9.92172 10.5786 10.9391 11 12 11C13.0609 11 14.0783 10.5786 14.8284 9.82843C15.5786 9.07828 16 8.06087 16 7C16 5.93913 15.5786 4.92172 14.8284 4.17157C14.0783 3.42143 13.0609 3 12 3ZM12 14C8.859 14 3 15.545 3 18.5V21H12.295C11.9386 19.8148 11.9044 18.556 12.1958 17.3531C12.4872 16.1503 13.0937 15.0467 13.953 14.156C13.3066 14.0575 12.6539 14.0053 12 14Z" fill="#1F5253"/>
<path d="M18.6479 17.0921C18.5633 16.9857 18.4094 16.969 18.3047 17.055L16.9184 18.1922L16.4342 17.5805C16.3498 17.474 16.1958 17.4571 16.091 17.5427C15.9862 17.6284 15.9694 17.7848 16.0537 17.8914L16.6913 18.6967C16.7316 18.7477 16.7915 18.7808 16.8554 18.7878C16.8641 18.7888 16.8728 18.7892 16.8815 18.7892C16.8988 18.7892 16.9161 18.7873 16.9332 18.7836L16.9333 18.7835C16.9702 18.7753 17.0053 18.7583 17.0349 18.7341L18.6115 17.4408C18.7161 17.3549 18.7325 17.1984 18.648 17.0921L18.6479 17.0921Z" fill="#1F5253"/>
<path d="M17 22C14.7945 22 13 20.2056 13 18C13 15.7945 14.7944 14 17 14C19.2056 14 21 15.7944 21 18C21.0001 20.2056 19.2058 22 17 22ZM17 14.7135C15.1877 14.7135 13.7135 16.1879 13.7135 18C13.7135 19.8122 15.1879 21.2865 17 21.2865C18.8123 21.2865 20.2865 19.8121 20.2865 18C20.2866 16.1879 18.8123 14.7135 17 14.7135Z" fill="#1F5253"/>
</g>
<defs>
<clipPath id="clip0_3723_14005">
<rect width="24" height="24" fill="white"/>
</clipPath>
</defs>
</svg>
