<svg width="29" height="29" viewBox="0 0 29 29" fill="none" xmlns="http://www.w3.org/2000/svg">
<path fill-rule="evenodd" clip-rule="evenodd" d="M16.2584 1.27987C16.3205 1.77854 16.3937 2.3685 16.4577 2.8437C16.5571 3.62319 17.1044 4.27182 17.8564 4.50039C18.4551 4.68788 19.0412 4.93052 19.5998 5.22782C20.2958 5.59902 21.1458 5.5258 21.7692 5.04054C22.1444 4.74768 22.6098 4.38517 23.0058 4.08186C23.0078 4.08119 23.0092 4.07985 23.0105 4.07851C23.2585 3.8852 23.6085 3.89302 23.8478 4.09703C24.3431 4.52784 24.8078 4.99235 25.2413 5.48521C25.4458 5.72583 25.4531 6.07715 25.2592 6.32652H25.2585C24.9498 6.72317 24.5846 7.19195 24.2937 7.57315C23.8132 8.19366 23.7413 9.03989 24.1112 9.73321C24.4018 10.2892 24.6444 10.8751 24.8299 11.4805C25.0591 12.2352 25.7125 12.7845 26.4957 12.8818C26.9685 12.9405 27.5538 13.0131 28.0484 13.0792C28.0504 13.0792 28.0518 13.0792 28.0538 13.0798C28.3658 13.1184 28.6078 13.3711 28.6326 13.6845C28.6785 14.3392 28.6785 14.9963 28.6373 15.6517C28.6111 15.9664 28.3685 16.2198 28.0545 16.2584C27.5558 16.3204 26.9658 16.3937 26.4906 16.4577C25.7111 16.5571 25.0625 17.1044 24.8339 17.8564C24.6464 18.4551 24.4038 19.0412 24.1065 19.5997C23.7353 20.2957 23.8085 21.1457 24.2938 21.7692C24.5866 22.1444 24.9492 22.6098 25.2525 23.0058C25.2531 23.0078 25.2545 23.0091 25.2558 23.0105C25.4491 23.2585 25.4413 23.6085 25.2373 23.8477C24.8065 24.343 24.342 24.8078 23.8491 25.2413C23.6085 25.4457 23.2572 25.4531 23.0078 25.2591V25.2585C22.6112 24.9498 22.1424 24.5846 21.7612 24.2937C21.1407 23.8131 20.2944 23.7413 19.6011 24.1111C19.0451 24.4018 18.4592 24.6444 17.8538 24.8299C17.0991 25.0591 16.5498 25.7124 16.4525 26.4957C16.3938 26.9685 16.3212 27.5538 16.2552 28.0484C16.2552 28.0504 16.2552 28.0517 16.2545 28.0537C16.2159 28.3658 15.9632 28.6078 15.6498 28.6325C14.9951 28.6785 14.338 28.6785 13.6826 28.6372C13.3679 28.6111 13.1145 28.3685 13.0759 28.0544C13.0139 27.5558 12.9407 26.9658 12.8766 26.4906C12.7773 25.7111 12.23 25.0625 11.4779 24.8339C10.8792 24.6464 10.2931 24.4038 9.7346 24.1065C9.0386 23.7353 8.1886 23.8085 7.56517 24.2938C7.18995 24.5866 6.72454 24.9491 6.32854 25.2524C6.32653 25.2531 6.32519 25.2545 6.32385 25.2558C6.07586 25.4491 5.72585 25.4413 5.4866 25.2373C4.99128 24.8065 4.52654 24.342 4.09305 23.8491C3.88859 23.6085 3.88123 23.2572 4.0752 23.0078H4.07587C4.38457 22.6111 4.74975 22.1424 5.04061 21.7612C5.52119 21.1406 5.59307 20.2944 5.2232 19.6011C4.93257 19.0451 4.68994 18.4592 4.50445 17.8538C4.27521 17.0991 3.62188 16.5498 2.83863 16.4525C2.36586 16.3938 1.78057 16.3212 1.28594 16.2551C1.28393 16.2551 1.28259 16.2551 1.28058 16.2545C0.968532 16.2159 0.726566 15.9632 0.701783 15.6498C0.655801 14.9951 0.655801 14.338 0.697096 13.6826C0.723212 13.3679 0.965844 13.1145 1.2799 13.0759C1.77856 13.0139 2.36852 12.9406 2.84372 12.8766C3.62321 12.7772 4.27184 12.2299 4.50041 11.4779C4.68791 10.8792 4.93054 10.2931 5.22784 9.73458C5.59904 9.03858 5.52583 8.18858 5.04056 7.56515C4.74771 7.18992 4.38519 6.72452 4.08188 6.32852C4.08121 6.32651 4.07987 6.32517 4.07853 6.32383C3.88523 6.07584 3.89304 5.72583 4.09706 5.48657C4.52786 4.99126 4.99237 4.52652 5.48523 4.09303C5.72585 3.88857 6.07717 3.8812 6.32654 4.07517V4.07584C6.72319 4.38455 7.19197 4.74973 7.57317 5.04059C8.19369 5.52117 9.03991 5.59304 9.73323 5.22318C10.2893 4.93255 10.8752 4.68992 11.4805 4.50443C12.2352 4.27519 12.7845 3.62186 12.8819 2.8386C12.9406 2.36584 13.0131 1.78055 13.0792 1.28592C13.0792 1.28391 13.0792 1.28257 13.0798 1.28056C13.1185 0.968509 13.3711 0.726543 13.6845 0.70176C14.3392 0.655778 14.9964 0.655778 15.6517 0.697073C15.9665 0.723189 16.2198 0.965822 16.2584 1.27987ZM14.6671 8.00044C10.9878 8.00044 8.00025 10.9879 8.00025 14.6673C8.00025 18.3467 10.9877 21.3342 14.6671 21.3342C18.3465 21.3342 21.334 18.3467 21.334 14.6673C21.334 10.9879 18.3465 8.00044 14.6671 8.00044Z" fill="#686868"/>
</svg>
