<svg width="30" height="30" viewBox="0 0 30 30" fill="none" xmlns="http://www.w3.org/2000/svg">
    <g clip-path="url(#clip0_293_248)">
        <path d="M29.5482 18.6287C27.5447 26.6644 19.4053 31.5544 11.3686 29.551C3.33566 27.5476 -1.55481 19.4082 0.449098 11.3729C2.4516 3.33616 10.5905 -1.55478 18.6249 0.448659C26.6611 2.4521 31.5511 10.5924 29.5477 18.6287H29.5482Z" fill="#686868"/>
        <path d="M21.6122 12.863C21.9103 10.867 20.3906 9.79406 18.3126 9.07828L18.9867 6.37453L17.3405 5.96438L16.6842 8.59688C16.252 8.48906 15.8076 8.38734 15.3661 8.28656L16.027 5.63672L14.3822 5.22656L13.7076 7.92938C13.3495 7.84781 12.998 7.76719 12.6567 7.68234L12.6586 7.67391L10.3889 7.10719L9.95108 8.865C9.95108 8.865 11.1722 9.14484 11.1464 9.16219C11.813 9.32859 11.9339 9.76969 11.9133 10.1194L11.1455 13.1995C11.1914 13.2113 11.2509 13.2281 11.3165 13.2544L11.1431 13.2113L10.0664 17.5261C9.98483 17.7286 9.77811 18.0323 9.31217 17.917C9.32858 17.9409 8.11592 17.6184 8.11592 17.6184L7.29889 19.5028L9.44108 20.0367C9.83951 20.1366 10.23 20.2411 10.6139 20.3395L9.9328 23.0747L11.5767 23.4848L12.2517 20.7792C12.7003 20.9011 13.1362 21.0136 13.5628 21.1195L12.8906 23.8125L14.5364 24.2227L15.2175 21.4931C18.0239 22.0242 20.1347 21.81 21.022 19.2722C21.7378 17.2284 20.9869 16.0495 19.5103 15.2803C20.5856 15.0314 21.3956 14.3241 21.6117 12.863H21.6122ZM17.8514 18.1359C17.3423 20.1797 13.9017 19.0753 12.7856 18.7978L13.6894 15.1748C14.805 15.4533 18.382 16.0045 17.8519 18.1359H17.8514ZM18.36 12.8334C17.8959 14.6925 15.0319 13.748 14.1023 13.5164L14.9217 10.2305C15.8512 10.462 18.8437 10.8942 18.36 12.8334Z" fill="white"/>
    </g>
    <defs>
        <clipPath id="clip0_293_248">
            <rect width="30" height="30" fill="white"/>
        </clipPath>
    </defs>
</svg>
