<svg width="30" height="24" viewBox="0 0 30 24" fill="none" xmlns="http://www.w3.org/2000/svg">
<path d="M6.24867 5.00193H6.12018C5.82666 5.00169 5.54532 5.12155 5.33923 5.33403C4.80424 5.90585 4.94324 6.77722 5.76721 7.61034V7.61059C6.19186 8.06425 6.73018 8.39199 7.32392 8.55804C7.67023 8.6779 8.05236 8.61688 8.34589 8.39467C8.56132 8.0949 8.62127 7.70737 8.50639 7.3546C8.34303 6.74997 8.02132 6.20219 7.5754 5.7697C7.23076 5.36904 6.76338 5.09845 6.2487 5.00192L6.24867 5.00193Z" fill="#686868"/>
<path d="M8.57025 23.6106V10.2462L5.78834 13.089C5.70045 13.1779 5.58079 13.2271 5.45684 13.2251C5.3293 13.2283 5.20606 13.1792 5.11435 13.089C4.93212 12.902 4.93212 12.6005 5.11435 12.4135L7.89626 9.5817H0.0158081V19.8473C0.0158081 20.8762 0.416807 21.863 1.13114 22.5912C1.84527 23.319 2.81417 23.7289 3.82495 23.7304H8.5863C8.57531 23.6913 8.56982 23.6509 8.57006 23.6106L8.57025 23.6106Z" fill="#686868"/>
<path d="M9.5069 0.389408V5.46502C9.61031 5.33325 9.72113 5.2078 9.83864 5.08915C10.3347 4.5363 11.0006 4.17138 11.7271 4.05444C12.3445 3.99074 12.9571 4.21295 13.3958 4.65956C13.8346 5.10617 14.0528 5.72975 13.9903 6.35824C13.8754 7.09782 13.5169 7.7756 12.9738 8.2806C12.8573 8.40021 12.734 8.51302 12.6046 8.61829H29.4727V4.15268C29.4727 3.12382 29.0717 2.13696 28.3574 1.40884C27.6433 0.680958 26.6744 0.271055 25.6636 0.269562H9.49121C9.5022 0.308704 9.50769 0.349059 9.50721 0.389421L9.5069 0.389408Z" fill="#686868"/>
<path d="M12.7382 5.32872C12.5304 5.11526 12.2471 4.99564 11.9517 4.99662H11.8287C11.3147 5.09143 10.8473 5.36008 10.502 5.75904C9.51226 6.7612 9.30352 7.93739 9.73151 8.38401C10.1595 8.83062 11.3365 8.60719 12.3102 7.59968C12.7019 7.24813 12.9658 6.7721 13.0592 6.24917C13.0967 5.90831 12.9782 5.56915 12.7382 5.32872L12.7382 5.32872Z" fill="#686868"/>
<path d="M5.4673 8.618C5.3443 8.51443 5.22131 8.40017 5.10356 8.28031C3.72862 6.88069 3.89982 5.45381 4.67557 4.65878C5.11192 4.20439 5.73026 3.98119 6.35004 4.05415C7.07682 4.17109 7.74265 4.53601 8.23875 5.08886C8.35625 5.2075 8.46707 5.33295 8.57025 5.46472V0.389116C8.56475 0.349487 8.56475 0.309127 8.57025 0.269257H3.8089C2.79818 0.270715 1.82946 0.680616 1.11533 1.40853C0.400962 2.13666 0 3.12351 0 4.15238V8.61799L5.4673 8.618Z" fill="#686868"/>
<path d="M10.1703 9.5715L12.9469 12.4033C13.1291 12.5901 13.1291 12.8918 12.9469 13.0785C12.8588 13.1677 12.7391 13.2166 12.6152 13.2147C12.4929 13.2178 12.3742 13.1731 12.2834 13.0895L9.50677 10.2576V23.6109C9.51251 23.6505 9.51251 23.6909 9.50677 23.7307H25.6633C26.674 23.7293 27.6429 23.3194 28.3571 22.5914C29.0714 21.8633 29.4724 20.8765 29.4724 19.8476V9.57141L10.1703 9.5715ZM26.1555 19.7282H20.442C20.3092 19.7425 20.1766 19.699 20.0773 19.6081C19.9779 19.5172 19.9211 19.3876 19.9211 19.2517C19.9211 19.1155 19.9779 18.9859 20.0773 18.895C20.1766 18.8043 20.3092 18.7606 20.442 18.7752H26.1555C26.2883 18.7606 26.4211 18.8043 26.5205 18.895C26.6198 18.9859 26.6764 19.1155 26.6764 19.2517C26.6764 19.3876 26.6198 19.5172 26.5205 19.6081C26.4211 19.699 26.2883 19.7425 26.1555 19.7282ZM26.1555 18.2741H20.442C20.3092 18.2885 20.1766 18.2449 20.0773 18.154C19.9779 18.0631 19.9211 17.9335 19.9211 17.7976C19.9211 17.6615 19.9779 17.5319 20.0773 17.4412C20.1766 17.3503 20.3092 17.3065 20.442 17.3211H26.1555C26.2883 17.3065 26.4211 17.3503 26.5205 17.4412C26.6198 17.5319 26.6764 17.6615 26.6764 17.7976C26.6764 17.9335 26.6198 18.0631 26.5205 18.154C26.4211 18.2449 26.2883 18.2885 26.1555 18.2741ZM26.6263 16.3571C26.6263 16.4843 26.5768 16.6061 26.4885 16.696C26.4001 16.786 26.2805 16.8363 26.1555 16.8363H20.4527C20.1927 16.8363 19.982 16.6219 19.982 16.3571V13.4598C19.982 13.1953 20.1927 12.9807 20.4527 12.9807H26.1555C26.2805 12.9807 26.4001 13.0312 26.4885 13.1209C26.5768 13.2109 26.6263 13.3327 26.6263 13.4598V16.3571Z" fill="#686868"/>
</svg>
