<svg width="48" height="48" viewBox="0 0 48 48" fill="none" xmlns="http://www.w3.org/2000/svg">
<path d="M24 46.5C11.58 46.5 1.5 36.42 1.5 24C1.5 11.58 11.58 1.5 24 1.5C36.42 1.5 46.5 11.58 46.5 24C46.5 36.42 36.42 46.5 24 46.5Z" fill="#BAE0BD"/>
<path d="M24.0002 1.80001C36.2402 1.80001 46.2002 11.76 46.2002 24C46.2002 36.24 36.2402 46.2 24.0002 46.2C11.7602 46.2 1.8002 36.24 1.8002 24C1.8002 11.76 11.7602 1.80001 24.0002 1.80001ZM24.0002 1.20001C11.4002 1.20001 1.2002 11.4 1.2002 24C1.2002 36.6 11.4002 46.8 24.0002 46.8C36.6002 46.8 46.8002 36.6 46.8002 24C46.8002 11.4 36.6002 1.20001 24.0002 1.20001Z" fill="#5E9C76"/>
<path d="M20.4001 33.6L12.1201 25.32L14.7001 22.8L20.4001 28.56L34.9201 14.04L37.5001 16.56L20.4001 33.6Z" fill="white"/>
</svg>
