<svg width="23" height="23" viewBox="0 0 23 23" fill="none" xmlns="http://www.w3.org/2000/svg">
    <path d="M21.514 22.5045H13.5098C12.9595 22.5045 12.5092 22.0543 12.5092 21.504V13.4997C12.5092 12.9494 12.9595 12.4991 13.5098 12.4991H21.514C22.0643 12.4991 22.5146 12.9494 22.5146 13.4997V21.504C22.5146 22.0543 22.0643 22.5045 21.514 22.5045Z" fill="#FF7200"/>
    <path d="M9.50762 22.5045H1.50334C0.953048 22.5045 0.502808 22.0543 0.502808 21.504V13.4997C0.502808 12.9494 0.953048 12.4991 1.50334 12.4991H9.50762C10.0579 12.4991 10.5082 12.9494 10.5082 13.4997V21.504C10.5082 22.0543 10.0579 22.5045 9.50762 22.5045Z" fill="#FF7200"/>
    <path d="M21.514 10.4981H13.5098C12.9595 10.4981 12.5092 10.0478 12.5092 9.49752V1.49324C12.5092 0.942947 12.9595 0.492706 13.5098 0.492706H21.514C22.0643 0.492706 22.5146 0.942947 22.5146 1.49324V9.49752C22.5146 10.0478 22.0643 10.4981 21.514 10.4981Z" fill="#FF7200"/>
    <path d="M5.50547 10.9984C5.24528 10.9984 4.99515 10.8983 4.79503 10.7083L0.292622 6.20584C-0.0975407 5.81568 -0.0975407 5.18518 0.292622 4.79503L4.79503 0.292622C5.18519 -0.0975407 5.81569 -0.0975407 6.20584 0.292622L10.7083 4.79503C11.0984 5.18519 11.0984 5.81569 10.7083 6.20584L6.20584 10.7083C6.01579 10.8983 5.76565 10.9984 5.50547 10.9984Z" fill="#FF7200"/>
</svg>
