<svg width="24" height="24" viewBox="0 0 24 24" fill="none" xmlns="http://www.w3.org/2000/svg">
<path d="M12 17C11.2089 17 10.4355 16.7654 9.77772 16.3259C9.11992 15.8864 8.60723 15.2616 8.30448 14.5307C8.00173 13.7998 7.92252 12.9956 8.07686 12.2196C8.2312 11.4437 8.61216 10.731 9.17157 10.1716C9.73098 9.61217 10.4437 9.2312 11.2196 9.07686C11.9956 8.92252 12.7998 9.00173 13.5307 9.30448C14.2616 9.60723 14.8864 10.1199 15.3259 10.7777C15.7654 11.4355 16 12.2089 16 13C16 14.0609 15.5786 15.0783 14.8284 15.8284C14.0783 16.5786 13.0609 17 12 17ZM18 21C18 20.2044 17.6839 19.4413 17.1213 18.8787C16.5587 18.3161 15.7956 18 15 18H9C8.20435 18 7.44129 18.3161 6.87868 18.8787C6.31607 19.4413 6 20.2044 6 21V24H18V21ZM18 8C17.2089 8 16.4355 7.76541 15.7777 7.32588C15.1199 6.88636 14.6072 6.26164 14.3045 5.53074C14.0017 4.79983 13.9225 3.99557 14.0769 3.21964C14.2312 2.44372 14.6122 1.73098 15.1716 1.17157C15.731 0.612165 16.4437 0.231202 17.2196 0.0768607C17.9956 -0.0774802 18.7998 0.00173312 19.5307 0.304484C20.2616 0.607234 20.8864 1.11992 21.3259 1.77772C21.7654 2.43552 22 3.20888 22 4C22 5.06087 21.5786 6.07828 20.8284 6.82843C20.0783 7.57858 19.0609 8 18 8ZM6 8C5.20887 8 4.43552 7.76541 3.77772 7.32588C3.11992 6.88636 2.60723 6.26164 2.30448 5.53074C2.00173 4.79983 1.92252 3.99557 2.07686 3.21964C2.2312 2.44372 2.61216 1.73098 3.17157 1.17157C3.73098 0.612165 4.44371 0.231202 5.21964 0.0768607C5.99556 -0.0774802 6.79983 0.00173312 7.53073 0.304484C8.26164 0.607234 8.88635 1.11992 9.32588 1.77772C9.7654 2.43552 10 3.20888 10 4C10 5.06087 9.57857 6.07828 8.82843 6.82843C8.07828 7.57858 7.06087 8 6 8ZM6 13C5.99948 11.5224 6.54715 10.0971 7.537 9H3C2.20435 9 1.44129 9.31607 0.87868 9.87868C0.31607 10.4413 0 11.2044 0 12L0 15H6.349C6.11935 14.3581 6.00131 13.6817 6 13ZM17.651 15H24V12C24 11.2044 23.6839 10.4413 23.1213 9.87868C22.5587 9.31607 21.7956 9 21 9H16.463C17.1854 9.79901 17.6775 10.7791 17.8867 11.8357C18.0959 12.8924 18.0144 13.986 17.651 15Z" fill="#686868"/>
</svg>
