<svg width="30" height="30" viewBox="0 0 30 30" fill="none" xmlns="http://www.w3.org/2000/svg">
<path d="M25.4942 14.9552C25.4942 18.0017 24.285 20.9235 22.1324 23.0792C19.9797 25.2349 17.0594 26.448 14.0131 26.4522C10.9666 26.4563 8.04314 25.2513 5.88443 23.1018C3.72584 20.952 2.50857 18.0335 2.50004 14.9872C2.49167 11.9408 3.69267 9.01548 5.83922 6.85419C7.98593 4.69256 10.9028 3.4713 13.9491 3.45862V13.8348C13.9491 14.1396 14.0703 14.4321 14.2859 14.6477C14.5015 14.8633 14.794 14.9844 15.0989 14.9844L25.4942 14.9552Z" fill="#686868"/>
<path d="M26.4525 13.9969H16.0862C15.7803 14.0021 15.4849 13.8862 15.264 13.6745C15.0434 13.4627 14.9151 13.1722 14.9076 12.8664V2.5001C16.9313 2.49173 18.9211 3.01738 20.6766 4.02436C22.4319 5.03133 23.8902 6.48363 24.9045 8.23473C25.9187 9.98583 26.4528 11.9735 26.4528 13.9969L26.4525 13.9969Z" fill="#686868"/>
</svg>
