<svg width="48" height="48" viewBox="0 0 48 48" fill="none" xmlns="http://www.w3.org/2000/svg">
<path d="M29.524 23.174C28.4307 23.7964 27.2388 24.2266 26 24.446V47.748C27.0541 47.5428 28.0675 47.1665 29 46.634L41.054 39.676C42.5723 38.7957 43.833 37.5325 44.7104 36.0125C45.5878 34.4926 46.0511 32.769 46.054 31.014V17.094C46.0476 16.0256 45.8686 14.9653 45.524 13.954L29.524 23.174Z" fill="#020ACB"/>
<path d="M20.4839 19.714C21.5551 20.3301 22.7692 20.6544 24.0049 20.6544C25.2406 20.6544 26.4547 20.3301 27.5259 19.714L43.5259 10.494C42.8172 9.67977 41.981 8.98607 41.0499 8.44001L28.9999 1.47401C27.4787 0.599251 25.7547 0.138885 23.9999 0.138885C22.2451 0.138885 20.5211 0.599251 18.9999 1.47401L6.9459 8.43401C6.048 8.95979 5.23816 9.62319 4.5459 10.4L20.4839 19.714Z" fill="#020ACB"/>
<path d="M22.0003 24.446C20.7608 24.2271 19.5681 23.7969 18.4743 23.174L2.51429 13.846C2.14494 14.8894 1.95295 15.9872 1.94629 17.094V31.014C1.94921 32.769 2.41249 34.4926 3.28987 36.0125C4.16725 37.5325 5.42802 38.7957 6.94629 39.676L19.0003 46.634C19.9328 47.1665 20.9462 47.5428 22.0003 47.748V24.446Z" fill="#020ACB"/>
</svg>
